<?xml version="1.0" standalone="no"?>
<!DOCTYPE svg PUBLIC "-//W3C//DTD SVG 20010904//EN" "http://www.w3.org/TR/2001/REC-SVG-20010904/DTD/svg10.dtd">
<!-- Created using Karbon, part of Calligra: http://www.calligra.org/karbon -->
<svg xmlns="http://www.w3.org/2000/svg" xmlns:xlink="http://www.w3.org/1999/xlink" width="640pt" height="1024pt">
<defs/>
<g id="layer0">
  <path id="shape0" transform="matrix(1 0 0 1 82.0836 455.714)" fill="none" stroke="#000000" stroke-width="1.25000000000" stroke-linecap="butt" stroke-linejoin="miter" stroke-miterlimit="10.00000000000" d="M0 0L0 434.984"/>
  <g id="group0" transform="translate(87.357, 207.567)" fill="none">
   <g id="group1" transform="" fill="none">
    <path id="shape1" transform="translate(-5.27336, 236.603)" fill="none" stroke="#000000" stroke-width="1.25000000000" stroke-linecap="butt" stroke-linejoin="miter" stroke-miterlimit="10.00000000000" d="M0 11.5438L0 0"/>
    <path id="shape2" transform="translate(-5.27336, 144.455)" fill="none" stroke="#000000" stroke-width="1.25000000000" stroke-linecap="butt" stroke-linejoin="miter" stroke-miterlimit="10.00000000000" stroke-dasharray="10.6435,10.6435" d="M0 71.6714L0 0"/>
    <path id="shape3" transform="translate(-5.27336, 122.672)" fill="none" stroke="#000000" stroke-width="1.25000000000" stroke-linecap="butt" stroke-linejoin="miter" stroke-miterlimit="10.00000000000" d="M0 11.5438L0 0"/>
   </g>
  </g>
  <g id="group2" transform="translate(87.357, 498.872)" fill="none">
   <g id="group3" transform="" fill="none">
    <path id="shape4" transform="translate(-5.27336, 505.757)" fill="none" stroke="#000000" stroke-width="1.25000000000" stroke-linecap="butt" stroke-linejoin="miter" stroke-miterlimit="10.00000000000" d="M0 11.5438L0 0"/>
    <path id="shape5" transform="translate(-5.27336, 413.607)" fill="none" stroke="#000000" stroke-width="1.25000000000" stroke-linecap="butt" stroke-linejoin="miter" stroke-miterlimit="10.00000000000" stroke-dasharray="10.6435,10.6435" d="M0 71.6714L0 0"/>
    <path id="shape6" transform="translate(-5.27336, 391.826)" fill="none" stroke="#000000" stroke-width="1.25000000000" stroke-linecap="butt" stroke-linejoin="miter" stroke-miterlimit="10.00000000000" d="M0 11.5438L0 0"/>
   </g>
  </g>
  <path id="shape7" transform="matrix(1 0 0 1 720.744 455.714)" fill="none" stroke="#000000" stroke-width="1.25000000000" stroke-linecap="butt" stroke-linejoin="miter" stroke-miterlimit="10.00000000000" d="M0 0L0 434.982"/>
  <g id="group4" transform="translate(440.98, 207.567)" fill="none">
   <g id="group5" transform="" fill="none">
    <path id="shape8" transform="translate(279.764, 236.603)" fill="none" stroke="#000000" stroke-width="1.25000000000" stroke-linecap="butt" stroke-linejoin="miter" stroke-miterlimit="10.00000000000" d="M0 11.5438L0 0"/>
    <path id="shape9" transform="translate(279.764, 144.455)" fill="none" stroke="#000000" stroke-width="1.25000000000" stroke-linecap="butt" stroke-linejoin="miter" stroke-miterlimit="10.00000000000" stroke-dasharray="10.6435,10.6435" d="M0 71.6714L0 0"/>
    <path id="shape10" transform="translate(279.764, 122.672)" fill="none" stroke="#000000" stroke-width="1.25000000000" stroke-linecap="butt" stroke-linejoin="miter" stroke-miterlimit="10.00000000000" d="M0 11.5438L0 0"/>
   </g>
  </g>
  <g id="group6" transform="translate(440.98, 498.871)" fill="none">
   <g id="group7" transform="" fill="none">
    <path id="shape11" transform="translate(279.764, 505.758)" fill="none" stroke="#000000" stroke-width="1.25000000000" stroke-linecap="butt" stroke-linejoin="miter" stroke-miterlimit="10.00000000000" d="M0 11.5438L0 0"/>
    <path id="shape12" transform="translate(279.764, 413.608)" fill="none" stroke="#000000" stroke-width="1.25000000000" stroke-linecap="butt" stroke-linejoin="miter" stroke-miterlimit="10.00000000000" stroke-dasharray="10.6436,10.6436" d="M0 71.6714L0 0"/>
    <path id="shape13" transform="translate(279.764, 391.825)" fill="none" stroke="#000000" stroke-width="1.25000000000" stroke-linecap="butt" stroke-linejoin="miter" stroke-miterlimit="10.00000000000" d="M0 11.5438L0 0"/>
   </g>
  </g>
  <path id="shape14" transform="matrix(1 0 0 1 82.0836 481.283)" fill="none" stroke="#000000" stroke-width="1.25000000000" stroke-linecap="butt" stroke-linejoin="miter" stroke-miterlimit="10.00000000000" d="M0 0L638.661 0"/>
  <path id="shape15" transform="matrix(1 0 0 1 82.0836 545.416)" fill="none" stroke="#000000" stroke-width="1.25000000000" stroke-linecap="butt" stroke-linejoin="miter" stroke-miterlimit="10.00000000000" d="M0 0L638.661 0"/>
  <path id="shape16" transform="matrix(1 0 0 1 720.744 558.884)" fill="none" stroke="#000000" stroke-width="1.25000000000" stroke-linecap="butt" stroke-linejoin="miter" stroke-miterlimit="10.00000000000" d="M0 0"/>
  <path id="shape17" transform="matrix(1 0 0 1 82.0836 558.884)" fill="none" stroke="#000000" stroke-width="1.25000000000" stroke-linecap="butt" stroke-linejoin="miter" stroke-miterlimit="10.00000000000" d="M0 0"/>
  <path id="shape18" transform="matrix(1 0 0 1 82.0836 609.55)" fill="none" stroke="#000000" stroke-width="1.25000000000" stroke-linecap="butt" stroke-linejoin="miter" stroke-miterlimit="10.00000000000" d="M0 0L638.661 0"/>
  <path id="shape19" transform="matrix(1 0 0 1 720.744 623.017)" fill="none" stroke="#000000" stroke-width="1.25000000000" stroke-linecap="butt" stroke-linejoin="miter" stroke-miterlimit="10.00000000000" d="M0 0"/>
  <path id="shape20" transform="matrix(1 0 0 1 82.0836 623.017)" fill="none" stroke="#000000" stroke-width="1.25000000000" stroke-linecap="butt" stroke-linejoin="miter" stroke-miterlimit="10.00000000000" d="M0 0"/>
  <path id="shape21" transform="matrix(1 0 0 1 82.0836 673.681)" fill="none" stroke="#000000" stroke-width="1.25000000000" stroke-linecap="butt" stroke-linejoin="miter" stroke-miterlimit="10.00000000000" d="M0 0L638.661 0"/>
  <path id="shape22" transform="matrix(1 0 0 1 82.0836 737.816)" fill="none" stroke="#000000" stroke-width="1.25000000000" stroke-linecap="butt" stroke-linejoin="miter" stroke-miterlimit="10.00000000000" d="M0 0L638.661 0"/>
  <path id="shape23" transform="matrix(1 0 0 1 720.744 751.284)" fill="none" stroke="#000000" stroke-width="1.25000000000" stroke-linecap="butt" stroke-linejoin="miter" stroke-miterlimit="10.00000000000" d="M0 0"/>
  <path id="shape24" transform="matrix(1 0 0 1 82.0836 751.284)" fill="none" stroke="#000000" stroke-width="1.25000000000" stroke-linecap="butt" stroke-linejoin="miter" stroke-miterlimit="10.00000000000" d="M0 0"/>
  <path id="shape25" transform="matrix(1 0 0 1 82.0836 801.948)" fill="none" stroke="#000000" stroke-width="1.25000000000" stroke-linecap="butt" stroke-linejoin="miter" stroke-miterlimit="10.00000000000" d="M0 0L638.661 0"/>
  <path id="shape26" transform="matrix(1 0 0 1 82.0836 866.081)" fill="none" stroke="#000000" stroke-width="1.25000000000" stroke-linecap="butt" stroke-linejoin="miter" stroke-miterlimit="10.00000000000" d="M0 0L638.661 0"/>
  <g id="group8" transform="translate(454.105, 539.536)" fill="none">
   <path id="shape27" transform="translate(266.639, 404.146)" fill="none" d="M0 0"/>
  </g>
  <g id="group9" transform="translate(100.482, 539.536)" fill="none">
   <path id="shape28" transform="translate(-18.3984, 404.146)" fill="none" d="M0 0"/>
  </g>
  <g id="group10" transform="translate(454.105, 572.871)" fill="none">
   <path id="shape29" transform="translate(266.639, 434.946)" fill="none" d="M0 0"/>
  </g>
  <g id="group11" transform="translate(100.482, 572.871)" fill="none">
   <path id="shape30" transform="translate(-18.3984, 434.946)" fill="none" d="M0 0"/>
  </g>
  <rect id="shape31" transform="matrix(1 0 0 1 252.963 499.186)" fill="none" width="238.35954875954pt" height="22.66425621652pt"/>
  <text id="shape32" fill="#000000" font-family=" Consolas " font-size="16.00000000000pt" x="0.00000000000pt" y="12.15625000000pt" transform="matrix(1.89635 0 0 1.92396 252.963 496.5)"><tspan x="0"  y="15.1953">0x7ffeeb113b78</tspan></text>
  <rect id="shape33" transform="matrix(1 0 0 1 252.963 563.317)" fill="none" width="238.35954875954pt" height="22.66425621652pt"/>
  <text id="shape34" fill="#000000" font-family=" Consolas " font-size="16.00000000000pt" x="0.00000000000pt" y="12.15625000000pt" transform="matrix(1.89635 0 0 1.92396 252.963 560.633)"><tspan x="0"  y="15.1953">0x7ffeeb113b79</tspan></text>
  <rect id="shape35" transform="matrix(1 0 0 1 252.963 627.45)" fill="none" width="238.35954875954pt" height="22.66425621652pt"/>
  <text id="shape36" fill="#000000" font-family=" Consolas " font-size="16.00000000000pt" x="0.00000000000pt" y="12.15625000000pt" transform="matrix(1.89635 0 0 1.92396 252.963 624.764)"><tspan x="0"  y="15.1953">0x7ffeeb113b7a</tspan></text>
  <rect id="shape37" transform="matrix(1 0 0 1 252.963 691.582)" fill="none" width="238.35954875954pt" height="22.66425621652pt"/>
  <text id="shape38" fill="#000000" font-family=" Consolas " font-size="16.00000000000pt" x="0.00000000000pt" y="12.15625000000pt" transform="matrix(1.89635 0 0 1.92396 252.963 688.898)"><tspan x="0"  y="15.1953">0x7ffeeb113b7b</tspan></text>
  <rect id="shape39" transform="matrix(1 0 0 1 252.963 755.715)" fill="none" width="238.35954875954pt" height="22.66425621652pt"/>
  <text id="shape40" fill="#000000" font-family=" Consolas " font-size="16.00000000000pt" x="0.00000000000pt" y="12.15625000000pt" transform="matrix(1.89635 0 0 1.92396 252.963 753.029)"><tspan x="0"  y="15.1953">0x7ffeeb113b7c</tspan></text>
  <rect id="shape41" transform="matrix(1 0 0 1 252.963 819.846)" fill="none" width="238.35954875954pt" height="22.66425621652pt"/>
  <text id="shape42" fill="#000000" font-family=" Consolas " font-size="16.00000000000pt" x="0.00000000000pt" y="12.15625000000pt" transform="matrix(1.89635 0 0 1.92396 252.963 817.162)"><tspan x="0"  y="15.1953">0x7ffeeb113b7d</tspan></text>
 </g>
</svg>
